<?xml version="1.0" encoding="UTF-8" standalone="no"?>
<!-- Created with Inkscape (http://www.inkscape.org/) -->

<svg
   xmlns:dc="http://purl.org/dc/elements/1.1/"
   xmlns:cc="http://creativecommons.org/ns#"
   xmlns:rdf="http://www.w3.org/1999/02/22-rdf-syntax-ns#"
   xmlns:svg="http://www.w3.org/2000/svg"
   xmlns="http://www.w3.org/2000/svg"
   xmlns:sodipodi="http://sodipodi.sourceforge.net/DTD/sodipodi-0.dtd"
   xmlns:inkscape="http://www.inkscape.org/namespaces/inkscape"
   width="87"
   height="87"
   viewBox="0 0 87 86.999997"
   id="svg2"
   version="1.1"
   inkscape:version="0.91 r13725"
   sodipodi:docname="tennis_ball.svg"
   inkscape:export-filename="C:\Users\user\love-workspaces\tennis-of-doom\tennis_ball.png"
   inkscape:export-xdpi="90"
   inkscape:export-ydpi="90">
  <defs
     id="defs4" />
  <sodipodi:namedview
     id="base"
     pagecolor="#ffffff"
     bordercolor="#666666"
     borderopacity="1.0"
     inkscape:pageopacity="0.0"
     inkscape:pageshadow="2"
     inkscape:zoom="3.959798"
     inkscape:cx="-33.198756"
     inkscape:cy="27.852123"
     inkscape:document-units="px"
     inkscape:current-layer="layer1"
     showgrid="false"
     fit-margin-top="0"
     fit-margin-left="0"
     fit-margin-right="0"
     fit-margin-bottom="0"
     units="px"
     inkscape:window-width="1920"
     inkscape:window-height="1018"
     inkscape:window-x="-8"
     inkscape:window-y="-8"
     inkscape:window-maximized="1" />
  <metadata
     id="metadata7">
    <rdf:RDF>
      <cc:Work
         rdf:about="">
        <dc:format>image/svg+xml</dc:format>
        <dc:type
           rdf:resource="http://purl.org/dc/dcmitype/StillImage" />
        <dc:title></dc:title>
      </cc:Work>
    </rdf:RDF>
  </metadata>
  <g
     inkscape:label="Layer 1"
     inkscape:groupmode="layer"
     id="layer1"
     transform="translate(-363.45685,-457.4104)">
    <circle
       style="fill:#85f959;fill-opacity:1;fill-rule:evenodd;stroke:#000000;stroke-width:1px;stroke-linecap:butt;stroke-linejoin:miter;stroke-opacity:1"
       id="path4149"
       cx="406.95685"
       cy="500.9104"
       r="43" />
    <path
       style="fill:#f3f959;fill-opacity:1;fill-rule:evenodd;stroke:#000000;stroke-width:1px;stroke-linecap:butt;stroke-linejoin:miter;stroke-opacity:1"
       d="m 442.12228,481.84845 c 1.75992,3.71174 3.81312,7.1302 4.29315,12.12183 0.53267,4.95279 0.80242,10.03703 0,15.65737 -1.2377,2.92129 -2.13274,5.49991 -5.3033,10.35406 -5.00868,5.30328 -10.22992,9.75633 -15.90991,12.37437 0.52306,-0.0872 -9.74517,3.26569 -21.46574,0.25254 -13.53857,-7.29252 -16.14087,-13.80388 -20.70812,-20.4556 -7.82869,-16.66752 -5.3033,-16.66751 -11.36422,-27.52665 -5.80837,-2.0203 -4.04061,-1.01015 -4.04061,-1.01015 l 2.47174,-4.99274 c 0,0 3.53144,-0.0227 4.79822,1.01015 4.12708,3.36488 4.34692,9.72419 6.37171,14.64917 1.75057,4.25799 3.26834,10.31434 4.99251,12.87748 5.41548,8.05061 11.71125,16.82296 20.70812,20.4556 3.33115,1.34501 8.85965,2.01152 13.47343,1.59831 4.57635,-0.40987 8.25278,-1.89426 7.99231,-1.85085 5.67999,-2.61804 9.2884,-6.5063 12.37438,-11.11168 2.238,-3.33989 3.60864,-7.36709 4.04061,-11.36421 0.57439,-5.31494 -0.58272,-10.76094 -2.02031,-15.90991 -1.11475,-3.99266 -2.78891,-7.89032 -5.05076,-11.36422 -4.09753,-6.29326 -9.93425,-11.74678 -15.12547,-16.69653 6.25502,4.89173 11.2146,7.14006 19.47226,20.93166 z"
       id="path4153-0"
       inkscape:connector-curvature="0"
       sodipodi:nodetypes="ccccccccccaassscaaaacc" />
  </g>
</svg>
